<mxfile host="Electron" modified="2024-05-21T09:07:49.583Z" agent="Mozilla/5.0 (Macintosh; Intel Mac OS X 10_15_7) AppleWebKit/537.36 (KHTML, like Gecko) draw.io/24.4.0 Chrome/120.0.6099.109 Electron/28.1.0 Safari/537.36" etag="Uq-bNBZrmzkjm8KlQ5Em" version="24.4.0" type="device">
  <diagram id="bikH8dGCshpRKPGdTHo0" name="overview">
    <mxGraphModel dx="1026" dy="743" grid="1" gridSize="10" guides="1" tooltips="1" connect="1" arrows="1" fold="1" page="1" pageScale="1" pageWidth="1169" pageHeight="827" math="0" shadow="0">
      <root>
        <mxCell id="0" />
        <mxCell id="1" parent="0" />
        <mxCell id="WtrVxpizaUlCa3npCH3H-1" value="Server" style="rounded=0;whiteSpace=wrap;html=1;verticalAlign=top;align=center;" parent="1" vertex="1">
          <mxGeometry x="80" y="80" width="380" height="280" as="geometry" />
        </mxCell>
        <mxCell id="KmlSYd8UaN9fcoQWDbJR-3" value="Arros" style="rounded=0;whiteSpace=wrap;html=1;" parent="1" vertex="1">
          <mxGeometry x="100" y="120" width="160" height="120" as="geometry" />
        </mxCell>
        <mxCell id="KmlSYd8UaN9fcoQWDbJR-4" value="Runtime&lt;div&gt;(Python)&lt;/div&gt;" style="rounded=0;whiteSpace=wrap;html=1;" parent="1" vertex="1">
          <mxGeometry x="320" y="120" width="120" height="50" as="geometry" />
        </mxCell>
        <mxCell id="KmlSYd8UaN9fcoQWDbJR-5" value="Runtime&lt;div&gt;(...)&lt;/div&gt;" style="rounded=0;whiteSpace=wrap;html=1;" parent="1" vertex="1">
          <mxGeometry x="320" y="190" width="120" height="50" as="geometry" />
        </mxCell>
        <mxCell id="KmlSYd8UaN9fcoQWDbJR-8" value="" style="endArrow=block;html=1;rounded=0;edgeStyle=orthogonalEdgeStyle;entryX=0;entryY=0.5;entryDx=0;entryDy=0;curved=1;dashed=1;endFill=1;startArrow=oval;startFill=1;" parent="1" source="KmlSYd8UaN9fcoQWDbJR-3" target="KmlSYd8UaN9fcoQWDbJR-4" edge="1">
          <mxGeometry width="50" height="50" relative="1" as="geometry">
            <mxPoint x="450" y="390" as="sourcePoint" />
            <mxPoint x="500" y="340" as="targetPoint" />
          </mxGeometry>
        </mxCell>
        <mxCell id="KmlSYd8UaN9fcoQWDbJR-9" value="" style="endArrow=block;html=1;rounded=0;edgeStyle=orthogonalEdgeStyle;entryX=0;entryY=0.5;entryDx=0;entryDy=0;curved=1;dashed=1;endFill=1;exitX=1;exitY=0.5;exitDx=0;exitDy=0;startArrow=oval;startFill=1;" parent="1" source="KmlSYd8UaN9fcoQWDbJR-3" target="KmlSYd8UaN9fcoQWDbJR-5" edge="1">
          <mxGeometry width="50" height="50" relative="1" as="geometry">
            <mxPoint x="270" y="190" as="sourcePoint" />
            <mxPoint x="310" y="155" as="targetPoint" />
          </mxGeometry>
        </mxCell>
        <mxCell id="KmlSYd8UaN9fcoQWDbJR-11" value="Message Broker&lt;div&gt;(Kafka, Mqtt, ...)&lt;/div&gt;" style="rounded=0;whiteSpace=wrap;html=1;" parent="1" vertex="1">
          <mxGeometry x="100" y="280" width="160" height="50" as="geometry" />
        </mxCell>
        <mxCell id="KmlSYd8UaN9fcoQWDbJR-12" value="Object Storage&lt;div&gt;(Ceph, Minio, ...)&lt;/div&gt;" style="rounded=0;whiteSpace=wrap;html=1;" parent="1" vertex="1">
          <mxGeometry x="280" y="280" width="160" height="50" as="geometry" />
        </mxCell>
        <mxCell id="KmlSYd8UaN9fcoQWDbJR-13" value="" style="endArrow=block;html=1;rounded=0;edgeStyle=orthogonalEdgeStyle;entryX=0.5;entryY=1;entryDx=0;entryDy=0;curved=1;dashed=1;endFill=1;exitX=0.5;exitY=0;exitDx=0;exitDy=0;startArrow=block;startFill=1;" parent="1" source="KmlSYd8UaN9fcoQWDbJR-11" target="KmlSYd8UaN9fcoQWDbJR-3" edge="1">
          <mxGeometry width="50" height="50" relative="1" as="geometry">
            <mxPoint x="270" y="190" as="sourcePoint" />
            <mxPoint x="330" y="225" as="targetPoint" />
          </mxGeometry>
        </mxCell>
        <mxCell id="KmlSYd8UaN9fcoQWDbJR-14" value="" style="endArrow=block;html=1;rounded=0;edgeStyle=orthogonalEdgeStyle;entryX=0.5;entryY=0;entryDx=0;entryDy=0;curved=1;dashed=1;endFill=1;exitX=0.75;exitY=1;exitDx=0;exitDy=0;startArrow=block;startFill=1;" parent="1" source="KmlSYd8UaN9fcoQWDbJR-3" target="KmlSYd8UaN9fcoQWDbJR-12" edge="1">
          <mxGeometry width="50" height="50" relative="1" as="geometry">
            <mxPoint x="190" y="290" as="sourcePoint" />
            <mxPoint x="190" y="250" as="targetPoint" />
          </mxGeometry>
        </mxCell>
      </root>
    </mxGraphModel>
  </diagram>
</mxfile>
